<svg width="50" height="51" viewBox="0 0 50 51" fill="none" xmlns="http://www.w3.org/2000/svg">
<path fill-rule="evenodd" clip-rule="evenodd" d="M42.6082 7.49077C40.3212 5.1887 37.6001 3.36334 34.6026 2.12043C31.6051 0.877518 28.3907 0.241771 25.1458 0.250018C11.5388 0.250018 0.46175 11.3243 0.45625 24.9368C0.45625 29.2873 1.592 33.5333 3.75075 37.2788L0.25 50.069L13.3372 46.6343C16.9573 48.6049 21.013 49.6382 25.1348 49.64H25.1458C38.75 49.64 49.827 38.5658 49.8325 24.9533C49.8418 21.7096 49.2082 18.4962 47.9682 15.4989C46.7282 12.5016 44.9065 9.77979 42.6082 7.49077ZM25.1458 45.4738H25.1375C21.4622 45.4742 17.8545 44.4853 14.693 42.611L13.945 42.1655L6.179 44.2033L8.24975 36.6325L7.763 35.857C5.70817 32.5857 4.62039 28.7999 4.62525 24.9368C4.63075 13.6233 13.835 4.41902 25.154 4.41902C27.8497 4.41303 30.5198 4.94174 33.0098 5.97456C35.4998 7.00738 37.7602 8.52378 39.6602 10.436C41.5705 12.3391 43.0845 14.602 44.1149 17.0938C45.1454 19.5855 45.6717 22.2568 45.6635 24.9533C45.658 36.2668 36.4538 45.4738 25.1458 45.4738ZM36.4015 30.104C35.7827 29.7933 32.7523 28.3028 32.1857 28.0965C31.622 27.8903 31.2122 27.7885 30.7998 28.4045C30.3873 29.0205 29.2048 30.4093 28.8445 30.8218C28.4842 31.2343 28.124 31.2838 27.508 30.9758C26.892 30.6678 24.9037 30.016 22.547 27.915C20.7127 26.2788 19.4752 24.2603 19.115 23.6415C18.7547 23.0228 19.0765 22.69 19.3872 22.382C19.665 22.107 20.0033 21.6615 20.3113 21.3013C20.6192 20.941 20.721 20.6853 20.9272 20.2728C21.1335 19.8603 21.0317 19.5 20.875 19.192C20.721 18.8813 19.4862 15.8453 18.972 14.6105C18.4742 13.4143 17.9655 13.5738 17.586 13.5573C17.193 13.5412 16.7996 13.5339 16.4062 13.5353C16.0935 13.5432 15.7857 13.6157 15.5022 13.7483C15.2188 13.8808 14.9657 14.0704 14.759 14.3053C14.1925 14.924 12.6003 16.4145 12.6003 19.4505C12.6003 22.4865 14.8112 25.4208 15.1192 25.8333C15.4272 26.2458 19.4698 32.4745 25.6573 35.1475C27.1313 35.7828 28.2807 36.1623 29.1745 36.4483C30.6512 36.9185 31.996 36.8498 33.0602 36.693C34.2455 36.517 36.7095 35.2025 37.2237 33.7615C37.738 32.3205 37.738 31.0858 37.584 30.8273C37.43 30.5688 37.0148 30.412 36.4015 30.104Z" fill="#F3EAE8"/>
</svg>
